<svg width="153" height="26" viewBox="0 0 153 26" fill="none" xmlns="http://www.w3.org/2000/svg">
<path fill-rule="evenodd" clip-rule="evenodd" d="M52.7775 0H57.285V24.771H52.7775V22.683C51.4508 24.405 49.5643 25.266 47.118 25.266C44.7666 25.266 42.7587 24.363 41.0943 22.56C39.4269 20.754 38.5947 18.543 38.5947 15.924C38.5947 13.305 39.4269 11.094 41.0943 9.288C42.7587 7.485 44.7666 6.582 47.118 6.582C49.5643 6.582 51.4508 7.443 52.7775 9.165V0ZM44.4823 19.515C45.4003 20.448 46.5613 20.913 47.9562 20.913C49.354 20.913 50.506 20.448 51.4152 19.515C52.3244 18.585 52.7775 17.388 52.7775 15.924C52.7775 14.46 52.3244 13.263 51.4152 12.333C50.506 11.4 49.354 10.935 47.9562 10.935C46.5613 10.935 45.4003 11.4 44.4823 12.333C43.5612 13.263 43.1022 14.46 43.1022 15.924C43.1022 17.388 43.5612 18.585 44.4823 19.515ZM10.2222 25.684C7.58942 25.684 5.39492 24.79 3.63873 22.996C1.87958 21.202 1 18.985 1 16.342C1 13.702 1.87958 11.482 3.63873 9.691C5.39492 7.897 7.58942 7 10.2222 7C11.9222 7 13.471 7.414 14.8689 8.239C16.2638 9.064 17.324 10.174 18.0466 11.566L14.17 13.864C13.8205 13.135 13.2904 12.556 12.5796 12.133C11.8688 11.707 11.0722 11.494 10.1867 11.494C8.83623 11.494 7.71973 11.95 6.83423 12.856C5.94873 13.765 5.50746 14.926 5.50746 16.342C5.50746 17.734 5.94873 18.886 6.83423 19.792C7.71973 20.701 8.83623 21.154 10.1867 21.154C11.0959 21.154 11.9044 20.95 12.6152 20.536C13.3259 20.125 13.856 19.552 14.2055 18.82L18.1177 21.085C17.3477 22.477 16.2638 23.59 14.8689 24.427C13.471 25.264 11.9222 25.684 10.2222 25.684ZM84.7286 7.77371L78.0003 25.7737H83.275L90.0003 7.77371H84.7286ZM34.9057 22.975C33.111 24.781 30.9224 25.681 28.3399 25.681C25.7545 25.681 23.5718 24.781 21.789 22.975C20.0091 21.172 19.1177 18.958 19.1177 16.342C19.1177 13.723 20.0091 11.509 21.789 9.706C23.5718 7.9 25.7545 7 28.3399 7C30.9224 7 33.111 7.9 34.9057 9.706C36.6974 11.509 37.5947 13.723 37.5947 16.342C37.5947 18.958 36.6974 21.172 34.9057 22.975ZM24.9667 19.843C25.8641 20.764 26.9895 21.223 28.3399 21.223C29.6904 21.223 30.8187 20.764 31.7279 19.843C32.6342 18.925 33.0902 17.755 33.0902 16.342C33.0902 14.926 32.6342 13.756 31.7279 12.838C30.8187 11.917 29.6904 11.458 28.3399 11.458C26.9895 11.458 25.8641 11.917 24.9667 12.838C24.0694 13.756 23.6222 14.926 23.6222 16.342C23.6222 17.755 24.0694 18.925 24.9667 19.843ZM67.9248 21.544C65.2476 21.544 63.6039 20.434 62.9998 18.217H76.1697C76.2852 17.557 76.3445 16.933 76.3445 16.342C76.3445 13.699 75.5123 11.482 73.8449 9.688C72.1805 7.897 70.066 7 67.5072 7C64.8033 7 62.5911 7.891 60.8675 9.673C59.1468 11.452 58.285 13.675 58.285 16.342C58.285 19.03 59.1587 21.259 60.903 23.029C62.6503 24.799 64.9662 25.684 67.8537 25.684C71.2092 25.684 73.7472 24.421 75.4708 21.898L71.837 19.774C70.9515 20.953 69.6484 21.544 67.9248 21.544ZM71.837 14.677H62.9287C63.1863 13.546 63.7105 12.667 64.5013 12.043C65.292 11.416 66.296 11.104 67.5072 11.104C68.5319 11.104 69.4441 11.401 70.2467 11.989C71.0522 12.58 71.5793 13.474 71.837 14.677ZM93.6012 25.095H95.3603V0H93.6012V25.095ZM116.492 7.393H114.694V11.443C113.942 10.057 112.911 8.971 111.596 8.182C110.282 7.393 108.789 7 107.122 7C104.61 7 102.463 7.9 100.677 9.706C98.8944 11.509 98 13.726 98 16.354C98 18.985 98.8944 21.202 100.677 23.005C102.463 24.808 104.61 25.711 107.122 25.711C108.789 25.711 110.282 25.318 111.596 24.529C112.911 23.74 113.942 22.654 114.694 21.265V25.318H116.492V7.393ZM107.264 23.992C105.173 23.992 103.408 23.251 101.963 21.769C100.52 20.287 99.7977 18.481 99.7977 16.354C99.7977 14.227 100.52 12.424 101.963 10.942C103.408 9.46 105.173 8.719 107.264 8.719C109.352 8.719 111.114 9.46 112.547 10.942C113.978 12.424 114.694 14.227 114.694 16.354C114.694 18.481 113.978 20.287 112.547 21.769C111.114 23.251 109.352 23.992 107.264 23.992ZM128.332 6.774C130.867 6.774 133.02 7.677 134.794 9.48C136.568 11.286 137.453 13.503 137.453 16.131C137.453 18.759 136.568 20.976 134.794 22.779C133.02 24.585 130.867 25.488 128.332 25.488C126.664 25.488 125.169 25.08 123.842 24.267C122.515 23.457 121.488 22.344 120.759 20.934V25.092H119V0H120.759V11.328C121.488 9.918 122.515 8.805 123.842 7.992C125.169 7.182 126.664 6.774 128.332 6.774ZM122.927 21.543C124.369 23.025 126.137 23.766 128.225 23.766C130.316 23.766 132.081 23.025 133.526 21.543C134.972 20.061 135.691 18.258 135.691 16.131C135.691 14.004 134.972 12.198 133.526 10.716C132.081 9.237 130.316 8.496 128.225 8.496C126.137 8.496 124.369 9.237 122.927 10.716C121.482 12.198 120.759 14.004 120.759 16.131C120.759 18.258 121.482 20.061 122.927 21.543ZM142.429 14.08C141.692 13.585 141.325 12.904 141.325 12.034C141.325 11.023 141.731 10.219 142.539 9.619C143.35 9.019 144.354 8.719 145.551 8.719C146.561 8.719 147.476 8.953 148.296 9.418C149.12 9.886 149.706 10.561 150.058 11.443L151.536 10.585C151.045 9.484 150.275 8.611 149.232 7.969C148.187 7.321 146.961 7 145.551 7C143.789 7 142.352 7.489 141.236 8.47C140.122 9.448 139.566 10.657 139.566 12.091C139.566 13.285 139.927 14.242 140.656 14.956C141.384 15.676 142.275 16.174 143.333 16.456C144.387 16.741 145.438 17.023 146.484 17.302C147.526 17.581 148.415 17.986 149.143 18.511C149.872 19.036 150.233 19.741 150.233 20.623C150.233 21.697 149.807 22.528 148.951 23.113C148.092 23.698 147.005 23.992 145.69 23.992C144.375 23.992 143.268 23.71 142.364 23.149C141.458 22.588 140.842 21.817 140.516 20.836L139 21.733C139.447 22.927 140.25 23.89 141.414 24.619C142.575 25.348 144.002 25.711 145.69 25.711C147.571 25.711 149.09 25.234 150.251 24.277C151.415 23.323 151.995 22.102 151.995 20.62C151.995 19.372 151.637 18.376 150.914 17.629C150.198 16.879 149.309 16.366 148.252 16.081C147.492 15.8785 146.736 15.6759 145.984 15.4745C145.689 15.3955 145.395 15.3166 145.101 15.238C144.055 14.959 143.164 14.572 142.429 14.08Z" fill="white"/>
</svg>
